<?xml version="1.0" encoding="UTF-8"?>
<svg width="772px" height="673px" viewBox="0 0 772 673" version="1.1" xmlns="http://www.w3.org/2000/svg" xmlns:xlink="http://www.w3.org/1999/xlink">
    <!-- Generator: Sketch 48.2 (47327) - http://www.bohemiancoding.com/sketch -->
    <title>Artboard</title>
    <desc>Created with Sketch.</desc>
    <defs>
        <rect id="path-1" x="0.349616446" y="0.304313649" width="83.5980861" height="81.6019417" rx="8.8"></rect>
    </defs>
    <g id="Page-1" stroke="none" stroke-width="1" fill="none" fill-rule="evenodd">
        <g id="Artboard">
            <rect id="Rectangle-5" fill="#DDDDDD" x="15" y="26" width="727" height="603" rx="28"></rect>
            <text id="R" font-family="KlavikaBold-BoldOSF, Klavika Bold" font-size="504.859257" font-weight="bold" fill="#C55757">
                <tspan x="63" y="448">R</tspan>
            </text>
            <rect id="Rectangle-3" fill="#C55757" x="91" y="111" width="24" height="336" rx="3.31313887"></rect>
            <path d="M292.416581,333.521228 L296.573408,330.602592 C298.075998,329.547578 300.147004,329.913755 301.199129,331.420472 L380.399058,444.840347 C381.451183,446.347064 381.086009,448.423758 379.583419,449.478772 L375.426592,452.397408 C373.924002,453.452422 371.852996,453.086245 370.800871,451.579528 L291.600942,338.159653 C290.548817,336.652936 290.913991,334.576242 292.416581,333.521228 Z" id="Rectangle-3" fill="#C55757"></path>
            <rect id="Rectangle-3" fill="#DDDDDD" x="240" y="176" width="37" height="101" rx="3.31313887"></rect>
            <rect id="Rectangle-3" fill="#DDDDDD" x="170" y="176" width="24" height="102" rx="3.31313887"></rect>
            <rect id="Rectangle-9" fill="#DDDDDD" x="158" y="342" width="65" height="107"></rect>
            <polygon id="Rectangle-9" fill="#DDDDDD" points="176 371.672033 217.048368 343 298 458.327967 256.951632 487"></polygon>
            <polygon id="Rectangle" fill="#DDDDDD" points="259 258 259 278 204 278 204 258"></polygon>
            <polygon id="Rectangle" fill="#DDDDDD" points="223 250 223 278 173 278 173 250"></polygon>
            <polygon id="Rectangle" fill="#DDDDDD" points="266 176 266 196 179 196 179 176"></polygon>
            <rect id="Rectangle-3" fill="#C55757" x="145" y="322" width="24" height="126" rx="3.31313887"></rect>
            <path d="M215.405699,337.493536 L219.530592,334.597853 C221.021639,333.551136 223.076735,333.914433 224.120777,335.409301 L296.403675,438.904516 C297.447717,440.399384 297.085348,442.459746 295.594301,443.506464 L291.469408,446.402147 C289.978361,447.448864 287.923265,447.085567 286.879223,445.590699 L214.596325,342.095484 C213.552283,340.600616 213.914652,338.540254 215.405699,337.493536 Z" id="Rectangle-3" fill="#C55757"></path>
            <path d="M201.5,292 C210.060414,292 217,285.859905 217,278.285714 C217,270.711523 210.060414,244 201.5,244 C192.939586,244 186,270.711523 186,278.285714 C186,285.859905 192.939586,292 201.5,292 Z" id="Oval" fill="#C55757"></path>
            <path d="M244.5,292 C253.060414,292 260,285.859905 260,278.285714 C260,270.711523 253.060414,244 244.5,244 C235.939586,244 229,270.711523 229,278.285714 C229,285.859905 235.939586,292 244.5,292 Z" id="Oval" fill="#C55757"></path>
            <path d="M170,149 L278,149 L278,175.208 C271.117931,174.901379 265.322809,176.665379 260.614634,180.5 C248.870271,190.065316 244.414634,212 224,212 C203.585366,212 197.818456,187.80754 187.385366,180.5 C181.597892,176.44634 175.80277,174.68234 170,175.208 L170,149 Z" id="Rectangle-2" fill="#C55757"></path>
            <rect id="Rectangle-4" fill="#DDDDDD" x="88" y="96" width="37" height="16"></rect>
            <rect id="Rectangle-6" fill="#DDDDDD" x="70" y="447" width="103" height="21" rx="2.5272"></rect>
            <rect id="Rectangle-6" fill="#DDDDDD" x="288" y="447" width="103" height="21" rx="2.5272"></rect>
            <path d="M468.586342,368.00161 L489.027808,368.202831 C505.197402,368.372433 518.167958,381.617969 517.998356,397.787563 C517.998309,397.791959 517.998262,397.796356 517.998214,397.800753 L517.741727,420.041032 C517.566207,436.085616 504.509773,449 488.464229,449 L468.27925,449 C452.108767,449 439,435.891233 439,419.72075 L439,397.27925 C439,381.108767 452.108767,368 468.27925,368 C468.381616,368 468.483981,368.000537 468.586342,368.00161 Z" id="Rectangle-8" fill="#000000" transform="translate(478.500000, 408.500000) rotate(270.000000) translate(-478.500000, -408.500000) "></path>
            <rect id="Rectangle-3" fill="#E9E9E9" x="514" y="322" width="73" height="84" rx="2.66175"></rect>
            <path d="M615.612084,363.001892 L638.053553,363.257013 C654.208417,363.440667 667.161536,376.674796 666.998477,392.829882 L666.683702,424.016261 C666.52166,440.07064 653.461141,453 637.405944,453 L615.27925,453 C599.108767,453 586,439.891233 586,423.72075 L586,392.27925 C586,376.108767 599.108767,363 615.27925,363 C615.390197,363 615.501144,363.000631 615.612084,363.001892 Z" id="Rectangle-8" fill="#C55757" transform="translate(626.500000, 408.000000) rotate(270.000000) translate(-626.500000, -408.000000) "></path>
            <path d="M549.027554,338.019265 L549.027554,338.019265 C560.777993,338.533506 570.030761,348.225468 569.999923,359.987113 L569.642769,496.205947 C569.612635,507.698994 560.287211,517 548.794124,517 L548.794124,517 C537.309847,517 528,507.690153 528,496.205876 L528,358.146707 C528,347.019988 537.019988,338 548.146707,338 C548.440428,338 548.734114,338.006423 549.027554,338.019265 Z" id="Rectangle-8" fill="#C55757" transform="translate(549.000000, 427.500000) rotate(270.000000) translate(-549.000000, -427.500000) "></path>
            <path d="M506.27925,159 L549.935089,159 C565.093502,159 577.745541,170.569627 579.097631,185.667618 L583.060302,229.916413 C583.823623,238.43996 588.277739,246.202928 595.251068,251.163392 L597.032195,252.430393 L610.843126,262.254773 C620.644898,269.227244 622.938498,282.825455 615.966027,292.627227 C614.446138,294.763858 612.552923,296.608482 610.377504,298.072314 L595.866425,307.836774 C588.527967,312.774799 583.815137,320.76562 583.044379,329.577145 L579.047364,375.272113 C577.724453,390.395991 565.061113,402 549.879487,402 L506.27925,402 C490.108767,402 477,388.891233 477,372.72075 L477,188.27925 C477,172.108767 490.108767,159 506.27925,159 Z" id="Rectangle-8" fill="#C55757" transform="translate(548.500000, 280.500000) rotate(90.000000) translate(-548.500000, -280.500000) "></path>
            <path d="M619.27925,210 L641.72075,210 C657.891233,210 671,223.108767 671,239.27925 C671,239.316174 670.99993,239.353098 670.99979,239.390021 L670.32091,418.831521 C670.259896,434.958647 657.169111,448 641.04187,448 L619.27925,448 C603.108767,448 590,434.891233 590,418.72075 L590,239.27925 C590,223.108767 603.108767,210 619.27925,210 Z" id="Rectangle-8" fill="#C55757" transform="translate(630.500000, 329.000000) rotate(180.000000) translate(-630.500000, -329.000000) "></path>
            <path d="M457.161116,212.013284 L479.602612,212.689509 C495.465807,213.167512 508.060217,226.196688 507.999783,242.066969 L507.319054,420.832243 C507.257644,436.959086 494.166976,450 478.040016,450 L456.27925,450 C440.108767,450 427,436.891233 427,420.72075 L427,241.27925 C427,225.108767 440.108767,212 456.27925,212 C456.573255,212 456.867244,212.004428 457.161116,212.013284 Z" id="Rectangle-8" fill="#C55757" transform="translate(467.500000, 331.000000) rotate(180.000000) translate(-467.500000, -331.000000) "></path>
            <path d="M482.580645,271.310345 C486.721041,255.103448 494.081745,247 504.662757,247 C515.243769,247 523.064517,255.103448 528.125001,271.310345 C529.375,275.437853 530,278.987415 530,281.959031 C530,284.930647 530,288.944303 530,294 L481,294 C481,289.479405 481,285.986579 481,283.521522 C481,281.056465 481.526882,276.986072 482.580645,271.310345 Z" id="Rectangle" fill="#E9E9E9"></path>
            <path d="M572.580645,271.310345 C576.721041,255.103448 584.081745,247 594.662757,247 C605.243769,247 613.064517,255.103448 618.125001,271.310345 C619.375,275.437853 620,278.987415 620,281.959031 C620,284.930647 620,288.944303 620,294 L571,294 C571,289.479405 571,285.986579 571,283.521522 C571,281.056465 571.526882,276.986072 572.580645,271.310345 Z" id="Rectangle" fill="#E9E9E9"></path>
            <path d="M490,294.574553 C493.973396,282.858184 499.140062,277 505.5,277 C511.859938,277 517.026604,282.858184 521,294.574553 L518.965127,303 L491.589744,303 L490,294.574553 Z" id="Rectangle" fill="#C55757"></path>
            <path d="M581,294.574553 C585.132394,282.858184 590.299061,277 596.5,277 C602.700939,277 607.867606,282.858184 612,294.574553 L609.240999,303 L582.55,303 L581,294.574553 Z" id="Rectangle" fill="#C55757"></path>
            <path d="M496,297.815109 C498.435307,290.605036 501.601974,287 505.5,287 C509.398026,287 512.564693,290.605036 515,297.815109 L513.75282,303 L496.974359,303 L496,297.815109 Z" id="Rectangle" fill="#FFFFFF"></path>
            <path d="M587,297.815109 C589.532758,290.605036 592.699424,287 596.5,287 C600.300576,287 603.467242,290.605036 606,297.815109 L604.308999,303 L587.95,303 L587,297.815109 Z" id="Rectangle" fill="#FFFFFF"></path>
            <rect id="Rectangle-2" fill="#C55757" x="481" y="294" width="147" height="14"></rect>
            <rect id="Rectangle-4" fill="#C55757" x="596" y="313" width="9" height="48"></rect>
            <rect id="Rectangle-7" x="473" y="449" width="184" height="21"></rect>
            <path d="M502.628485,325.275862 C502.162843,326.435891 501.955945,326.919915 502.007792,326.727935 C502.160051,326.164138 502.527171,325.525942 502.758291,324.972188 C503.139605,324.058576 503.432026,323.244185 503.853815,322.409276 C505.409364,319.330154 507.361749,317 509.541957,317 C512.854663,317 515.674011,320.673643 518,328.020928 L516.887522,333 L506.650207,333 L502.628485,333 L502.628485,325.275862 Z" id="Rectangle" fill="#E9E9E9" transform="translate(510.000000, 325.000000) rotate(-23.000000) translate(-510.000000, -325.000000) "></path>
            <rect id="Rectangle-3" fill="#E9E9E9" x="503" y="327" width="16" height="80" rx="2.66175"></rect>
            <rect id="Rectangle-3" fill="#E9E9E9" x="579" y="325" width="16" height="82" rx="2.66175"></rect>
            <path d="M574.996613,322.841669 C575.451906,321.274452 575.724521,320.256368 575.814457,319.787418 C576.6452,315.455696 577.471053,313.904115 580.845646,314.004548 C584.768238,314.121291 588.503338,319.104006 592.050947,328.952693 C591.995923,330.696636 592.310943,332.723482 592.996007,335.03323 C594.750507,340.948665 595.604178,344.800767 595.883889,345.628154 C596.796625,348.328035 592.028487,335.43496 592.028487,335.592196 C592.028487,336.037853 590.772434,334.268765 588.260329,330.284933 L575.036718,331.854647 C574.185184,331.234522 573.812785,330.589083 573.919522,329.918329 C573.931946,329.840252 572.543079,332.004421 573.156462,329.713733 C573.429018,328.695868 574.042402,326.40518 574.996613,322.841669 Z" id="Rectangle" fill="#E9E9E9" transform="translate(584.500000, 330.000000) scale(-1, 1) rotate(-15.000000) translate(-584.500000, -330.000000) "></path>
            <path d="M531,421 C538.731986,421 545,414.987824 545,407.571429 C545,400.155033 538.731986,374 531,374 C523.268014,374 517,400.155033 517,407.571429 C517,414.987824 523.268014,421 531,421 Z" id="Oval" fill="#C55757"></path>
            <path d="M568.5,420 C575.955844,420 582,414.243661 582,407.142857 C582,400.042053 575.955844,375 568.5,375 C561.044156,375 555,400.042053 555,407.142857 C555,414.243661 561.044156,420 568.5,420 Z" id="Oval" fill="#C55757"></path>
            <rect id="Rectangle-4" fill="#C55757" x="492" y="311" width="9" height="48"></rect>
            <path d="M507.5,213 C511.642136,213 515,194.798448 515,189.533333 C515,184.268219 511.642136,180 507.5,180 C503.357864,180 500,184.268219 500,189.533333 C500,194.798448 503.357864,213 507.5,213 Z" id="Oval-2" fill="#C55757" transform="translate(507.500000, 196.500000) rotate(-30.000000) translate(-507.500000, -196.500000) "></path>
            <path d="M523.5,212 C527.642136,212 531,193.798448 531,188.533333 C531,183.268219 527.642136,179 523.5,179 C519.357864,179 516,183.268219 516,188.533333 C516,193.798448 519.357864,212 523.5,212 Z" id="Oval-2" fill="#C55757" transform="translate(523.500000, 195.500000) rotate(22.000000) translate(-523.500000, -195.500000) "></path>
            <text id="Ryan-McClelland" font-family="KlavikaBold-BoldOSF, Klavika Bold" font-size="83" font-weight="bold" fill="#C55757">
                <tspan x="91" y="539">Ryan McClelland</tspan>
            </text>
            <g id="Group" transform="translate(683.000000, 576.000000)">
                <mask id="mask-2" fill="white">
                    <use xlink:href="#path-1"></use>
                </mask>
                <use id="Mask" fill="#FFE37F" xlink:href="#path-1"></use>
                <rect id="Rectangle-6" fill="#DC940F" mask="url(#mask-2)" transform="translate(31.004821, 22.484686) rotate(-43.000000) translate(-31.004821, -22.484686) " x="15.3797471" y="20.9977642" width="31.2501485" height="2.97384296" rx="1.48692148"></rect>
                <rect id="Rectangle-6" fill="#DC940F" mask="url(#mask-2)" x="4.90844632" y="32.2966732" width="74.2283582" height="2.97384296" rx="1.48692148"></rect>
                <path d="M20.3829162,11.6451766 C26.3788638,11.3810134 30.6995872,11.2489318 33.3450864,11.2489318 C36.0169,11.2489318 40.5900934,11.478131 47.0646667,11.9365293 L47.0646661,11.9365385 C47.800474,11.9886336 48.3588969,12.6206138 48.3200075,13.3572377 L48.3200075,13.3572377 C48.2810889,14.0944159 47.6615647,14.6661583 46.9236377,14.6459104 C40.5523995,14.4710961 35.9710504,14.3836863 33.1795899,14.3836863 C30.430074,14.3836863 26.1847115,14.468489 20.4435025,14.6380943 L20.4435019,14.6380752 C19.6470224,14.6616046 18.9822738,14.0350047 18.9587444,13.2385251 C18.958325,13.2243278 18.9581152,13.210125 18.9581152,13.1959214 L18.9581118,13.1341357 C18.9581118,12.3365196 19.5860731,11.6802831 20.3829162,11.6451766 Z" id="Rectangle-6" fill="#DC940F" mask="url(#mask-2)" transform="translate(33.640017, 12.947682) rotate(-3.000000) translate(-33.640017, -12.947682) "></path>
                <path d="M37.3517796,11.6903199 C43.3535732,11.3948071 47.6778144,11.2470506 50.3245033,11.2470506 C51.398469,11.2470506 52.7728884,11.2713795 54.4477617,11.3200371 C55.9463197,11.3635726 59.064316,11.4896289 63.8017508,11.6982062 L63.8017502,11.6982197 C64.5986022,11.733303 65.2265823,12.3895398 65.2265823,13.1871638 L65.2265823,13.2481764 C65.2265823,14.0307417 64.5921877,14.6651363 63.8096223,14.6651363 C63.7872442,14.6651363 63.7648692,14.6646062 63.7425163,14.6635464 C57.4607939,14.3657336 52.9358612,14.216818 50.1677172,14.216818 C47.4176223,14.216818 43.16777,14.363798 37.4181604,14.657758 L37.4181602,14.657754 C36.639672,14.6975558 35.9763169,14.098732 35.9365152,13.3202438 C35.935288,13.2962409 35.9346741,13.2722106 35.9346741,13.2481764 L35.9346781,13.1789125 C35.9346781,12.3842807 36.5581092,11.7293982 37.3517796,11.6903199 Z" id="Rectangle-6" fill="#DC940F" mask="url(#mask-2)" transform="translate(50.580628, 12.956093) scale(-1, 1) rotate(-3.000000) translate(-50.580628, -12.956093) "></path>
                <rect id="Rectangle-6" fill="#DC940F" mask="url(#mask-2)" transform="translate(13.379060, 23.404228) rotate(-55.000000) translate(-13.379060, -23.404228) " x="0.169864376" y="21.9173067" width="26.4183908" height="2.97384296" rx="1.48692148"></rect>
                <rect id="Rectangle-6" fill="#DC940F" mask="url(#mask-2)" transform="translate(30.356196, 54.569628) rotate(61.000000) translate(-30.356196, -54.569628) " x="6.37023481" y="53.082707" width="47.9719228" height="2.97384296" rx="1.48692148"></rect>
                <rect id="Rectangle-6" fill="#DC940F" mask="url(#mask-2)" transform="translate(54.106609, 54.018123) scale(-1, 1) rotate(62.000000) translate(-54.106609, -54.018123) " x="30.1206479" y="52.5312013" width="47.9719228" height="2.97384296" rx="1.48692148"></rect>
                <rect id="Rectangle-6" fill="#DC940F" mask="url(#mask-2)" transform="translate(53.639478, 22.815113) scale(-1, 1) rotate(-43.000000) translate(-53.639478, -22.815113) " x="38.0144034" y="21.3281912" width="31.2501485" height="2.97384296" rx="1.48692148"></rect>
                <rect id="Rectangle-6" fill="#DC940F" mask="url(#mask-2)" transform="translate(19.794199, 23.118752) rotate(-86.000000) translate(-19.794199, -23.118752) " x="9.14656522" y="21.6318309" width="21.2952679" height="2.97384296" rx="1.48692148"></rect>
                <rect id="Rectangle-6" fill="#DC940F" mask="url(#mask-2)" transform="translate(64.730649, 23.118752) scale(-1, 1) rotate(-86.000000) translate(-64.730649, -23.118752) " x="54.0830153" y="21.6318309" width="21.2952679" height="2.97384296" rx="1.48692148"></rect>
                <rect id="Rectangle-6" fill="#DC940F" mask="url(#mask-2)" transform="translate(70.789101, 23.512465) scale(-1, 1) rotate(-56.000000) translate(-70.789101, -23.512465) " x="57.5799054" y="22.0255439" width="26.4183908" height="2.97384296" rx="1.48692148"></rect>
                <rect id="Rectangle-6" fill="#DC940F" mask="url(#mask-2)" transform="translate(24.123596, 54.753868) rotate(50.000000) translate(-24.123596, -54.753868) " x="-5.02044868" y="53.2669462" width="58.2880887" height="2.97384296" rx="1.48692148"></rect>
                <rect id="Rectangle-6" fill="#DC940F" mask="url(#mask-2)" transform="translate(59.677653, 55.010662) scale(-1, 1) rotate(50.000000) translate(-59.677653, -55.010662) " x="30.6304373" y="53.5237406" width="58.0944306" height="2.97384296" rx="1.48692148"></rect>
            </g>
        </g>
    </g>
</svg>