<?xml version="1.0" encoding="UTF-8"?>
<svg width="110px" height="124px" viewBox="0 0 110 124" version="1.1" xmlns="http://www.w3.org/2000/svg" xmlns:xlink="http://www.w3.org/1999/xlink" style="background: #F2F2F2;">
    <!-- Generator: Sketch 48.2 (47327) - http://www.bohemiancoding.com/sketch -->
    <title>Artboard 5</title>
    <desc>Created with Sketch.</desc>
    <defs></defs>
    <g id="Page-1" stroke="none" stroke-width="1" fill="none" fill-rule="evenodd">
        <g id="Artboard-5">
            <text id="R" font-family="KlavikaBold-BoldOSF, Klavika Bold" font-size="159.816162" font-weight="bold" fill="#000000">
                <tspan x="1.7467179" y="116.291993">R</tspan>
            </text>
            <rect id="Rectangle-3" fill="#F2F2F2" x="58.1" y="30.3" width="11.7" height="32" rx="1.04879356"></rect>
            <rect id="Rectangle-5" fill="#000000" x="35.3" y="61.5" width="2.6" height="2.5"></rect>
            <rect id="Rectangle-3" fill="#F2F2F2" x="35.8" y="30.3" width="7.5" height="32.4" rx="1.04879356"></rect>
            <rect id="Rectangle-3" fill="#000000" x="11.2" y="9.9" width="7.5" height="106.4" rx="1.04879356"></rect>
            <rect id="Rectangle-9" fill="#F2F2F2" x="32.2" y="83.2" width="22.5" height="33.7"></rect>
            <rect id="Rectangle-9" fill="#F2F2F2" transform="translate(57.033377, 105.857387) rotate(-35.000000) translate(-57.033377, -105.857387) " x="49.1333769" y="83.6073868" width="15.8" height="44.5"></rect>
            <rect id="Rectangle-3" fill="#000000" transform="translate(85.850000, 114.450000) rotate(-90.000000) translate(-85.850000, -114.450000) " x="84" y="101.9" width="3.7" height="25.1" rx="1.04879356"></rect>
            <rect id="Rectangle-3" fill="#000000" x="28" y="76.7" width="7.5" height="39.6" rx="1.04879356"></rect>
            <rect id="Rectangle-3" fill="#000000" transform="translate(62.917894, 98.245225) rotate(-35.000000) translate(-62.917894, -98.245225) " x="61.0678941" y="77.1452245" width="3.7" height="42.2" rx="1.04879356"></rect>
            <rect id="Rectangle-3" fill="#000000" transform="translate(88.321653, 98.578741) rotate(-35.000000) translate(-88.321653, -98.578741) " x="86.4716529" y="75.7287406" width="3.7" height="45.7" rx="1.04879356"></rect>
            <rect id="Rectangle" fill="#F2F2F2" transform="translate(55.600000, 59.200000) rotate(90.000000) translate(-55.600000, -59.200000) " x="52.4" y="50.4" width="6.4" height="17.6"></rect>
            <rect id="Rectangle" fill="#F2F2F2" transform="translate(44.800000, 58.000000) rotate(90.000000) translate(-44.800000, -58.000000) " x="40.4" y="50.1" width="8.8" height="15.8"></rect>
            <rect id="Rectangle" fill="#FFFFFF" transform="translate(50.350000, 31.100000) rotate(90.000000) translate(-50.350000, -31.100000) " x="47.15" y="17.25" width="6.4" height="27.7"></rect>
            <rect id="Rectangle-6" fill="#F2F2F2" x="70.9" y="116.3" width="32.5" height="6.5" rx="0.8"></rect>
            <path d="M45.9,66.7 C48.6061953,66.7 50.8,64.7812204 50.8,62.4142857 C50.8,60.0473511 48.6061953,51.7 45.9,51.7 C43.1938047,51.7 41,60.0473511 41,62.4142857 C41,64.7812204 43.1938047,66.7 45.9,66.7 Z" id="Oval" fill="#000000"></path>
            <path d="M59.6,66.7 C62.3061953,66.7 64.5,64.7812204 64.5,62.4142857 C64.5,60.0473511 62.3061953,51.7 59.6,51.7 C56.8938047,51.7 54.7,60.0473511 54.7,62.4142857 C54.7,64.7812204 56.8938047,66.7 59.6,66.7 Z" id="Oval" fill="#000000"></path>
            <path d="M36.3,22.1 L69.1,22.1 L69.1,30.42 C67.0098902,30.32266 65.2498902,30.88266 63.82,32.1 C60.2531935,35.1366081 58.9,42.1 52.7,42.1 C46.5,42.1 44.7485682,34.4198541 41.58,32.1 C39.8223227,30.8131239 38.0623227,30.2531239 36.3,30.42 L36.3,22.1 Z" id="Rectangle-2" fill="#000000"></path>
        </g>
    </g>
</svg>