<?xml version="1.0" encoding="UTF-8"?>
<svg width="423px" height="423px" viewBox="0 0 423 423" version="1.1" xmlns="http://www.w3.org/2000/svg" xmlns:xlink="http://www.w3.org/1999/xlink">
    <!-- Generator: Sketch 48.2 (47327) - http://www.bohemiancoding.com/sketch -->
    <title>Artboard 2</title>
    <desc>Created with Sketch.</desc>
    <defs>
        <circle id="path-1" cx="182" cy="182.25" r="182"></circle>
    </defs>
    <g id="Page-1" stroke="none" stroke-width="1" fill="none" fill-rule="evenodd">
        <g id="Artboard-2">
            <g id="Group-3" transform="translate(29.500000, 22.500000)">
                <mask id="mask-2" fill="white">
                    <use xlink:href="#path-1"></use>
                </mask>
                <use id="Mask" fill="#BCE2F6" xlink:href="#path-1"></use>
                <path d="M304.75,367.75 C304.75,346.823264 303.747355,325.079405 282.866364,311.234091 C261.452159,297.035224 219.745596,291 186.75,291 C152.516308,291 114.977314,297.901818 93.4227273,313.048182 C73.9445268,326.735473 68.75,347.628551 68.75,367.75 L304.75,367.75 Z" id="Oval-4" stroke="#5C2424" stroke-width="6.5" fill="#BA4D4D" mask="url(#mask-2)"></path>
                <path d="M208.25,364.5 C208.25,352.073593 197.280976,342 183.75,342 C170.219024,342 159.25,352.073593 159.25,364.5" id="Oval" stroke="#C7C7C7" stroke-width="3.5" fill="#FFFFFF" mask="url(#mask-2)"></path>
                <path d="M288.5,183 C294.575132,183 299.5,177.963203 299.5,171.75 C299.5,165.536797 294.575132,160.5 288.5,160.5" id="Oval-9" stroke="#092850" stroke-width="6.5" fill="#F1D9CC" mask="url(#mask-2)"></path>
                <circle id="Oval-4" stroke="#092850" stroke-width="6.5" fill="#F1D9CC" mask="url(#mask-2)" cx="179.75" cy="178.5" r="109.5"></circle>
                <path d="M161.25,291 C161.25,302.59798 170.65202,312 182.25,312 C193.84798,312 203.25,302.59798 203.25,291 L161.25,291 Z" id="Oval-4" stroke="#092850" stroke-width="6.5" fill="#F1D9CC" mask="url(#mask-2)"></path>
                <rect id="Rectangle-8" fill="#F1D9CC" mask="url(#mask-2)" transform="translate(88.230585, 116.778201) rotate(34.000000) translate(-88.230585, -116.778201) " x="83.9805848" y="113.278201" width="8.5" height="7"></rect>
                <path d="M59.25,185.5 C65.3251322,185.5 70.25,180.463203 70.25,174.25 C70.25,168.036797 65.3251322,163 59.25,163" id="Oval-9" stroke="#092850" stroke-width="6.5" fill="#F1D9CC" mask="url(#mask-2)" transform="translate(64.750000, 174.250000) scale(-1, 1) translate(-64.750000, -174.250000) "></path>
                <path d="M80.9502635,81.668174 C77.4761304,112.992659 119.694487,143.237573 169.376905,145.427994 C191.958577,146.423586 238.719627,137.048561 262.496752,120.187007 C291.032186,99.9510963 294.761149,71.3429041 294.996172,69.223828 C295.224639,67.1638556 285.311782,84.0884432 242.49711,60.7299649 C214.906255,45.6771721 200.52933,34.1971301 177.191784,33.1682135 C127.509365,30.9777922 84.4243966,50.343689 80.9502635,81.668174 Z" id="Oval-4" stroke="#412A1E" stroke-width="6.5" fill="#99664C" mask="url(#mask-2)"></path>
                <path d="M56.8324845,133.405691 C55.4056214,134.518542 24.3586106,153.17391 50.7361688,156.485358 C77.1137271,159.796806 113.256198,149.867225 113.398504,148.586251 C113.473965,147.906994 108.691515,150.211059 94.5502696,142.508821 C85.4372944,137.545305 75.4343957,133.78855 68.4699455,132.593846 C63.2337051,131.695604 58.2593476,132.29284 56.8324845,133.405691 Z" id="Oval-4" stroke="#412A1E" stroke-width="6.5" fill="#99664C" mask="url(#mask-2)" transform="translate(76.774381, 144.657739) rotate(94.000000) translate(-76.774381, -144.657739) "></path>
                <path d="M57.8037458,88.0150138 C57.3216317,88.3933833 46.8313447,94.7362083 55.7438986,95.8621006 C64.6564524,96.9879929 76.8684134,93.6119353 76.9164966,93.176404 C76.9419935,92.9454568 75.3260803,93.728839 70.5479804,91.1100781 C67.4688522,89.4224824 64.0890332,88.1451858 61.7358572,87.7389863 C59.9666156,87.4335841 58.28586,87.6366443 57.8037458,88.0150138 Z" id="Oval-4" stroke="#412A1E" stroke-width="4.5" fill="#99664C" mask="url(#mask-2)" transform="translate(64.541793, 91.840710) rotate(219.000000) translate(-64.541793, -91.840710) "></path>
                <g id="Group-2" mask="url(#mask-2)">
                    <g transform="translate(105.000000, 109.750000)">
                        <path d="M0.21111737,13.7075926 C10.5682602,16.4037609 23.4499567,17.9152491 38.8562067,18.2420574 C54.2624567,18.5688657 70.3807602,14.7288685 87.2111174,6.72206575" id="Line" stroke="#412A1E" stroke-width="6.5" fill="none" stroke-linecap="square" transform="translate(43.711117, 12.491674) rotate(1.000000) translate(-43.711117, -12.491674) "></path>
                        <polygon id="Triangle-5" stroke="none" fill="#412A1E" fill-rule="evenodd" transform="translate(93.592000, 4.574679) rotate(65.000000) translate(-93.592000, -4.574679) " points="93.592 0.824679478 96.8096759 8.32467948 90.3743241 8.32467948"></polygon>
                    </g>
                </g>
                <circle id="Oval-5" fill="#092850" mask="url(#mask-2)" cx="132" cy="182.75" r="6.25"></circle>
                <circle id="Oval-5" fill="#092850" mask="url(#mask-2)" cx="228" cy="182.25" r="6.25"></circle>
                <g id="Group" mask="url(#mask-2)">
                    <g transform="translate(109.750000, 155.000000)">
                        <path d="M16.8998479,2.86686478 L42.6326545,2.83933521 C43.4396221,2.8384719 44.102656,3.47619564 44.1331854,4.28258592 L44.3425151,9.81171937 C44.3738563,10.6395534 43.7281714,11.3360527 42.9003373,11.367394 C42.8814297,11.3681098 42.8625101,11.3684678 42.8435889,11.3684678 L16.9014526,11.3684678 C16.0730255,11.3684678 15.4014526,10.6968949 15.4014526,9.8684678 L15.4014526,4.36686393 C15.4014526,3.53906342 16.0720478,2.86775038 16.8998479,2.86686478 Z" id="Rectangle-7" stroke="none" fill="#5A3826" fill-rule="evenodd" transform="translate(29.872531, 7.103901) scale(-1, 1) rotate(-10.000000) translate(-29.872531, -7.103901) "></path>
                        <path d="M42.5546223,4.75002046 L43.5249607,13.7115183" id="Line-3" stroke="#F1D9CC" stroke-width="0.5" fill="none" stroke-linecap="square" transform="translate(43.039792, 9.230769) scale(-1, 1) rotate(-5.000000) translate(-43.039792, -9.230769) "></path>
                        <path d="M42.7077541,3.50992442 L40.9600622,12.3527505" id="Line-3" stroke="#F1D9CC" stroke-width="0.5" fill="none" stroke-linecap="square"></path>
                        <path d="M39.8886768,2.52523468 L40.8590152,11.4867325" id="Line-3" stroke="#F1D9CC" stroke-width="0.5" fill="none" stroke-linecap="square" transform="translate(40.373846, 7.005984) scale(-1, 1) rotate(-5.000000) translate(-40.373846, -7.005984) "></path>
                        <path d="M2.66597687,3.39353503 L19.5852339,3.4642839 C19.6693112,3.46463548 19.7532693,3.45791739 19.8362209,3.44420063 L20.4102871,3.34927387 C20.4700625,3.33938951 20.5265329,3.37983416 20.5364172,3.43960953 C20.5442156,3.48677009 20.5205793,3.53355136 20.4779883,3.55525254 C18.1638074,4.73438639 15.8496266,5.91352023 13.5354457,7.09265407 C12.3190771,7.7124247 9.14886649,9.40205024 4.02481375,12.1615307 L4.02480285,12.1615105 C3.29543018,12.554303 2.38573555,12.2814509 1.99294302,11.5520782 C1.90151009,11.3822973 1.84367238,11.1964787 1.82259721,11.0047983 L1.16868988,5.05745831 C1.07815031,4.23399362 1.67230351,3.49304678 2.4957682,3.40250721 C2.55228851,3.39629283 2.60911645,3.39329727 2.66597687,3.39353503 Z" id="Rectangle-7" stroke="none" fill="#5A3826" fill-rule="evenodd" transform="translate(10.848734, 7.844466) scale(-1, 1) rotate(22.000000) translate(-10.848734, -7.844466) "></path>
                    </g>
                </g>
                <g id="Group" mask="url(#mask-2)">
                    <g transform="translate(228.250000, 162.875000) scale(-1, 1) translate(-228.250000, -162.875000) translate(205.750000, 155.000000)">
                        <path d="M16.8998479,2.86686478 L42.6326545,2.83933521 C43.4396221,2.8384719 44.102656,3.47619564 44.1331854,4.28258592 L44.3425151,9.81171937 C44.3738563,10.6395534 43.7281714,11.3360527 42.9003373,11.367394 C42.8814297,11.3681098 42.8625101,11.3684678 42.8435889,11.3684678 L16.9014526,11.3684678 C16.0730255,11.3684678 15.4014526,10.6968949 15.4014526,9.8684678 L15.4014526,4.36686393 C15.4014526,3.53906342 16.0720478,2.86775038 16.8998479,2.86686478 Z" id="Rectangle-7" stroke="none" fill="#5A3826" fill-rule="evenodd" transform="translate(29.872531, 7.103901) scale(-1, 1) rotate(-10.000000) translate(-29.872531, -7.103901) "></path>
                        <path d="M42.5546223,4.75002046 L43.5249607,13.7115183" id="Line-3" stroke="#F1D9CC" stroke-width="0.5" fill="none" stroke-linecap="square" transform="translate(43.039792, 9.230769) scale(-1, 1) rotate(-5.000000) translate(-43.039792, -9.230769) "></path>
                        <path d="M42.7077541,3.50992442 L40.9600622,12.3527505" id="Line-3" stroke="#F1D9CC" stroke-width="0.5" fill="none" stroke-linecap="square"></path>
                        <path d="M39.8886768,2.52523468 L40.8590152,11.4867325" id="Line-3" stroke="#F1D9CC" stroke-width="0.5" fill="none" stroke-linecap="square" transform="translate(40.373846, 7.005984) scale(-1, 1) rotate(-5.000000) translate(-40.373846, -7.005984) "></path>
                        <path d="M2.66597687,3.39353503 L19.5852339,3.4642839 C19.6693112,3.46463548 19.7532693,3.45791739 19.8362209,3.44420063 L20.4102871,3.34927387 C20.4700625,3.33938951 20.5265329,3.37983416 20.5364172,3.43960953 C20.5442156,3.48677009 20.5205793,3.53355136 20.4779883,3.55525254 C18.1638074,4.73438639 15.8496266,5.91352023 13.5354457,7.09265407 C12.3190771,7.7124247 9.14886649,9.40205024 4.02481375,12.1615307 L4.02480285,12.1615105 C3.29543018,12.554303 2.38573555,12.2814509 1.99294302,11.5520782 C1.90151009,11.3822973 1.84367238,11.1964787 1.82259721,11.0047983 L1.16868988,5.05745831 C1.07815031,4.23399362 1.67230351,3.49304678 2.4957682,3.40250721 C2.55228851,3.39629283 2.60911645,3.39329727 2.66597687,3.39353503 Z" id="Rectangle-7" stroke="none" fill="#5A3826" fill-rule="evenodd" transform="translate(10.848734, 7.844466) scale(-1, 1) rotate(22.000000) translate(-10.848734, -7.844466) "></path>
                    </g>
                </g>
                <path d="M134.730355,125.300634 C137.809634,125.410693 150.305044,126.159856 162.719569,123.800052 C178.515603,120.797476 194.229506,113.995302 193.25,112.875 C193.236168,112.85918 190.087489,113.241305 189.459265,113.295976 C182.608535,113.892152 162.822291,107.325203 147.475443,99.7907355 C134.230547,93.2882123 131.386086,86.6269874 128.482762,82.7841364 C110.246709,58.6468253 145.342051,39.1901692 148.225154,38.2668623 C154.472747,36.266086 145.96386,38.7215605 138.229006,39.5173475 C111.489311,42.268415 83.75,63.0208641 83.75,85.5352039 C83.75,99.2111334 91.5693948,112.403554 104.492007,119.798499 C112.843567,124.577667 123.681365,124.905722 134.730355,125.300634 Z" id="Oval-6" fill="#7E5039" mask="url(#mask-2)"></path>
                <path d="M70.6995142,168.5 C70.6995142,168.5 74.595713,148.776718 73.5815333,131.799717 C72.5673536,114.822715 73.5815333,110.328802 73.5815333,111.077788 C73.5815333,111.363567 72.7858945,110.951209 71.5531739,114.073729 C69.5551168,119.134872 67.75,129.799532 67.75,140.288217 C67.75,157.247999 70.6995142,168.5 70.6995142,168.5 Z" id="Oval-7" fill="#7E5039" mask="url(#mask-2)"></path>
                <ellipse id="Oval-8" fill="#EBC7B3" mask="url(#mask-2)" cx="230.25" cy="202" rx="18" ry="4"></ellipse>
                <circle id="Oval-10" fill="#CDB277" mask="url(#mask-2)" cx="117.25" cy="200.5" r="1.5"></circle>
                <circle id="Oval-10" fill="#CDB277" mask="url(#mask-2)" cx="117.25" cy="200.5" r="1.5"></circle>
                <circle id="Oval-10" fill="#CDB277" mask="url(#mask-2)" cx="117.25" cy="200.5" r="1.5"></circle>
                <ellipse id="Oval-8" fill="#EBC7B3" mask="url(#mask-2)" cx="127.75" cy="202" rx="18" ry="4"></ellipse>
                <circle id="Oval-10" fill="#BF9B60" mask="url(#mask-2)" cx="117.25" cy="200.5" r="1.5"></circle>
                <path d="M161.25,226.5 C161.25,240.5 168.25,247.5 182.25,247.5 C196.25,247.5 203.25,240.5 203.25,226.5 L161.25,226.5 Z" id="Line-2" stroke="#092850" stroke-width="6.5" fill="#FFFFFF" stroke-linecap="square" mask="url(#mask-2)"></path>
                <circle id="Oval-10" fill="#BF9B60" mask="url(#mask-2)" cx="135.25" cy="200.5" r="1.5"></circle>
                <circle id="Oval-10" fill="#BF9B60" mask="url(#mask-2)" cx="238.25" cy="200.5" r="1.5"></circle>
                <circle id="Oval-10" fill="#BF9B60" mask="url(#mask-2)" cx="229.75" cy="203.5" r="1.5"></circle>
                <circle id="Oval-10" fill="#BF9B60" mask="url(#mask-2)" cx="220.25" cy="200.5" r="1.5"></circle>
                <circle id="Oval-10" fill="#BF9B60" mask="url(#mask-2)" cx="126.25" cy="203.5" r="1.5"></circle>
                <rect id="Rectangle" fill="#FFD362" mask="url(#mask-2)" transform="translate(183.750000, 359.000000) scale(1, -1) translate(-183.750000, -359.000000) " x="181.75" y="353.5" width="4" height="11"></rect>
                <rect id="Rectangle" fill="#F4CA5D" mask="url(#mask-2)" transform="translate(182.750000, 359.000000) scale(1, -1) translate(-182.750000, -359.000000) " x="181.75" y="353.5" width="2" height="11"></rect>
                <polyline id="Triangle" fill="#EBCDB2" mask="url(#mask-2)" points="185.743681 353.4998 181.743681 353.4998 181.971384 353.072856 183.743681 349.7498"></polyline>
                <polygon id="Triangle-2" fill="#DFC4AB" mask="url(#mask-2)" transform="translate(182.751934, 351.616726) scale(1, -1) translate(-182.751934, -351.616726) " points="183.751934 353.491726 183.751934 349.741726 181.751934 349.741726"></polygon>
                <polygon id="Triangle-3" fill="#E77550" mask="url(#mask-2)" transform="translate(183.739363, 350.174864) scale(1, -1) translate(-183.739363, -350.174864) " points="183.740245 350.674864 184.239363 349.674864 183.239363 349.674864"></polygon>
                <polygon id="Triangle-2" fill="#D87554" mask="url(#mask-2)" transform="translate(183.481102, 350.163508) scale(1, -1) translate(-183.481102, -350.163508) " points="183.731102 350.663508 183.731102 349.663508 183.231102 349.663508"></polygon>
            </g>
        </g>
    </g>
</svg>